{"title":"Sevyn Streeter Ft. Chris Brown - It Won't Stop [Music Video] 108","uid":9162567,"size":98189703,"categoryP":"video","categoryS":"music_videos","magnet":"?xt=urn:btih:937a35f6e1c9d24bbcbeefe18ba278ec905667c3&amp;dn=Sevyn+Streeter+Ft.+Chris+Brown+-+It+Won%27t+Stop+%5BMusic+Video%5D+108&amp;tr=udp%3A%2F%2Ftracker.openbittorrent.com%3A80&amp;tr=udp%3A%2F%2Fopen.demonii.com%3A1337&amp;tr=udp%3A%2F%2Ftracker.coppersurfer.tk%3A6969&amp;tr=udp%3A%2F%2Fexodus.desync.com%3A6969","seeders":5,"leechers":1,"uploader":"Sbyky","files":1,"time":1383893550,"description":"[IMG]http://cdn.piczend.com/images/5D6UUEB0/1383848633_itwontstop.jpg[/IMG]\n\nGeneral\nComplete name                            : Sevyn Streeter Ft. Chris Brown - It Won't Stop [Music Video] 1080p [Sbyky].MP4\nFormat                                   : MPEG-4\nFormat profile                           : Base Media / Version 2\nCodec ID                                 : mp42\nFile size                                : 93.6 MiB\nDuration                                 : 4mn 37s\nOverall bit rate mode                    : Variable\nOverall bit rate                         : 2 834 Kbps\nEncoded date                             : UTC 2013-10-10 07:07:52\nTagged date                              : UTC 2013-10-10 07:07:52\n\nVideo\nID                                       : 1\nFormat                                   : AVC\nFormat/Info                              : Advanced Video Codec\nFormat profile                           : &lt;a class=&quot;__cf_email__&quot; href=&quot;/cdn-cgi/l/email-protection&quot; data-cfemail=&quot;82caebe5eac2ceb6acb2&quot;&gt;[email&amp;#160;protected]&lt;/a&gt;&lt;script cf-hash='f9e31' type=&quot;text/javascript&quot;&gt;\n/* &lt;![CDATA[ */!function(){try{var t=&quot;currentScript&quot;in document?document.currentScript:function(){for(var t=document.getElementsByTagName(&quot;script&quot;),e=t.length;e--;)if(t[e].getAttribute(&quot;cf-hash&quot;))return t[e]}();if(t&amp;&amp;t.previousSibling){var e,r,n,i,c=t.previousSibling,a=c.getAttribute(&quot;data-cfemail&quot;);if(a){for(e=&quot;&quot;,r=parseInt(a.substr(0,2),16),n=2;a.length-n;n+=2)i=parseInt(a.substr(n,2),16)^r,e+=String.fromCharCode(i);e=document.createTextNode(e),c.parentNode.replaceChild(e,c)}}}catch(u){}}();/* ]]&gt; */&lt;/script&gt;\nFormat settings, CABAC                   : Yes\nFormat settings, ReFrames                : 2 frames\nCodec ID                                 : avc1\nCodec ID/Info                            : Advanced Video Coding\nDuration                                 : 4mn 37s\nSource duration                          : 4mn 37s\nBit rate                                 : 2 579 Kbps\nWidth                                    : 1 920 pixels\nHeight                                   : 1 080 pixels\nDisplay aspect ratio                     : 16:9\nFrame rate mode                          : Constant\nFrame rate                               : 23.976 fps\nColor space                              : YUV\nChroma subsampling                       : 4:2:0\nBit depth                                : 8 bits\nScan type                                : Progressive\nBits/(Pixel*Frame)                       : 0.052\nStream size                              : 85.2 MiB (91%)\nSource stream size                       : 85.2 MiB (91%)\nEncoded date                             : UTC 2013-10-10 07:07:52\nTagged date                              : UTC 2013-10-10 07:07:52\n\nAudio\nID                                       : 2\nFormat                                   : AAC\nFormat/Info                              : Advanced Audio Codec\nFormat profile                           : LC\nCodec ID                                 : 40\nDuration                                 : 4mn 37s\nBit rate mode                            : Variable\nBit rate                                 : 254 Kbps\nChannel(s)                               : 2 channels\nChannel positions                        : Front: L R\nSampling rate                            : 44.1 KHz\nCompression mode                         : Lossy\nStream size                              : 8.38 MiB (9%)\nEncoded date                             : UTC 2013-10-10 07:07:41\nTagged date                              : UTC 2013-10-10 07:07:41\n\nShared By Sbyky\n[IMG]http://cdn.piczend.com/images/X3Ag13N3/1379453786_saythanks.gif[/IMG]\n[IMG]http://cdn.piczend.com/images/gGqhX2S8/1379453780_keepseeding.gif[/IMG]","torrent":{"xt":"urn:btih:937a35f6e1c9d24bbcbeefe18ba278ec905667c3","amp;dn":"Sevyn+Streeter+Ft.+Chris+Brown+-+It+Won%27t+Stop+%5BMusic+Video%5D+108","amp;tr":["udp%3A%2F%2Ftracker.openbittorrent.com%3A80","udp%3A%2F%2Fopen.demonii.com%3A1337","udp%3A%2F%2Ftracker.coppersurfer.tk%3A6969","udp%3A%2F%2Fexodus.desync.com%3A6969"],"infoHash":"937a35f6e1c9d24bbcbeefe18ba278ec905667c3","infoHashBuffer":{"type":"Buffer","data":[147,122,53,246,225,201,210,75,188,190,239,225,139,162,120,236,144,86,103,195]},"announce":[],"urlList":[]}}